<svg width="64" height="32" viewBox="0 0 64 32" fill="none" xmlns="http://www.w3.org/2000/svg">
<path d="M0 0.0739565H1.56366V7.89225H0V0.0739565Z" transform="translate(40.2998 11.9417)" fill="#2D1BFF"/>
<path d="M0 0.0739565H1.56366V7.89225H0V0.0739565Z" transform="translate(40.2998 11.9417)" fill="url(#paint0_linear)"/>
<path d="M2.97272 0.0739565H4.22998L7.50521 5.2298V0.0739565H9.06887V7.89225H7.81161L4.54694 2.7364V7.89225H2.97272V0.0739565Z" transform="translate(40.2998 11.9417)" fill="#2D1BFF"/>
<path d="M2.97272 0.0739565H4.22998L7.50521 5.2298V0.0739565H9.06887V7.89225H7.81161L4.54694 2.7364V7.89225H2.97272V0.0739565Z" transform="translate(40.2998 11.9417)" fill="url(#paint1_linear)"/>
<path d="M10.3589 1.85949C10.3589 1.22557 10.5315 0.771264 10.8766 0.496567C11.2288 0.214827 11.6514 0.0739565 12.1444 0.0739565C13.5461 0.0739565 14.6731 0.119739 15.5253 0.211305V1.5214H12.5776C12.3663 1.5214 12.2043 1.58127 12.0916 1.70101C11.9789 1.8137 11.9226 1.96162 11.9226 2.14475V3.48654L15.0182 3.57106V4.80719L11.9226 4.89171V7.89225H10.3589V1.85949Z" transform="translate(40.2998 11.9417)" fill="#2D1BFF"/>
<path d="M10.3589 1.85949C10.3589 1.22557 10.5315 0.771264 10.8766 0.496567C11.2288 0.214827 11.6514 0.0739565 12.1444 0.0739565C13.5461 0.0739565 14.6731 0.119739 15.5253 0.211305V1.5214H12.5776C12.3663 1.5214 12.2043 1.58127 12.0916 1.70101C11.9789 1.8137 11.9226 1.96162 11.9226 2.14475V3.48654L15.0182 3.57106V4.80719L11.9226 4.89171V7.89225H10.3589V1.85949Z" transform="translate(40.2998 11.9417)" fill="url(#paint2_linear)"/>
<path d="M19.5402 7.95564C18.7725 7.95564 18.1597 7.85351 17.7018 7.64925C17.244 7.44499 16.8989 7.05759 16.6664 6.48707C16.434 5.91654 16.3178 5.08541 16.3178 3.99367C16.3178 2.90192 16.434 2.07079 16.6664 1.50027C16.9059 0.922699 17.2546 0.528263 17.7124 0.316957C18.1702 0.105652 18.7795 0 19.5402 0C20.3079 0 20.9172 0.105652 21.368 0.316957C21.8258 0.528263 22.1709 0.922699 22.4034 1.50027C22.6358 2.07079 22.752 2.90192 22.752 3.99367C22.752 5.08541 22.6358 5.91654 22.4034 6.48707C22.1709 7.05759 21.8258 7.44499 21.368 7.64925C20.9172 7.85351 20.3079 7.95564 19.5402 7.95564ZM19.5402 6.55046C19.9839 6.55046 20.3185 6.48707 20.5439 6.36029C20.7763 6.22646 20.9419 5.97994 21.0405 5.62072C21.1391 5.25446 21.1884 4.71211 21.1884 3.99367C21.1884 3.24706 21.1391 2.69414 21.0405 2.33492C20.9419 1.96866 20.7763 1.72214 20.5439 1.59535C20.3185 1.46857 19.9839 1.40518 19.5402 1.40518C19.1035 1.40518 18.7689 1.46857 18.5365 1.59535C18.3111 1.72214 18.1456 1.96866 18.0399 2.33492C17.9343 2.70118 17.8815 3.2541 17.8815 3.99367C17.8815 4.71915 17.9308 5.2615 18.0294 5.62072C18.128 5.97994 18.29 6.22646 18.5154 6.36029C18.7478 6.48707 19.0894 6.55046 19.5402 6.55046Z" transform="translate(40.2998 11.9417)" fill="#2D1BFF"/>
<path d="M19.5402 7.95564C18.7725 7.95564 18.1597 7.85351 17.7018 7.64925C17.244 7.44499 16.8989 7.05759 16.6664 6.48707C16.434 5.91654 16.3178 5.08541 16.3178 3.99367C16.3178 2.90192 16.434 2.07079 16.6664 1.50027C16.9059 0.922699 17.2546 0.528263 17.7124 0.316957C18.1702 0.105652 18.7795 0 19.5402 0C20.3079 0 20.9172 0.105652 21.368 0.316957C21.8258 0.528263 22.1709 0.922699 22.4034 1.50027C22.6358 2.07079 22.752 2.90192 22.752 3.99367C22.752 5.08541 22.6358 5.91654 22.4034 6.48707C22.1709 7.05759 21.8258 7.44499 21.368 7.64925C20.9172 7.85351 20.3079 7.95564 19.5402 7.95564ZM19.5402 6.55046C19.9839 6.55046 20.3185 6.48707 20.5439 6.36029C20.7763 6.22646 20.9419 5.97994 21.0405 5.62072C21.1391 5.25446 21.1884 4.71211 21.1884 3.99367C21.1884 3.24706 21.1391 2.69414 21.0405 2.33492C20.9419 1.96866 20.7763 1.72214 20.5439 1.59535C20.3185 1.46857 19.9839 1.40518 19.5402 1.40518C19.1035 1.40518 18.7689 1.46857 18.5365 1.59535C18.3111 1.72214 18.1456 1.96866 18.0399 2.33492C17.9343 2.70118 17.8815 3.2541 17.8815 3.99367C17.8815 4.71915 17.9308 5.2615 18.0294 5.62072C18.128 5.97994 18.29 6.22646 18.5154 6.36029C18.7478 6.48707 19.0894 6.55046 19.5402 6.55046Z" transform="translate(40.2998 11.9417)" fill="url(#paint3_linear)"/>
<circle cx="1.75905" cy="1.75905" r="1.75905" transform="translate(8.22339 13.065)" fill="url(#paint4_linear)"/>
<circle cx="1.75905" cy="1.75905" r="1.75905" transform="translate(14.1304 13.065)" fill="url(#paint5_linear)"/>
<circle cx="1.75905" cy="1.75905" r="1.75905" transform="translate(20.0371 13.065)" fill="url(#paint6_linear)"/>
<path fill-rule="evenodd" clip-rule="evenodd" d="M14.5657 25.7554C22.6099 25.7554 29.1311 19.9898 29.1311 12.8777C29.1311 5.76553 22.6099 0 14.5657 0C6.52124 0 0 5.76553 0 12.8777C0 15.7538 1.06638 18.4097 2.86874 20.5531C3.13891 20.8744 3.2065 21.3251 3.01701 21.6997L0.327979 27.0153C-0.0722882 27.8065 0.678897 28.6886 1.52379 28.4195L10.8089 25.4621C10.976 25.4088 11.154 25.4012 11.326 25.4357C12.3678 25.6449 13.4523 25.7554 14.5657 25.7554Z" transform="translate(1.32373 1.82065)" stroke="url(#paint7_linear)" stroke-width="2"/>
<defs>
<linearGradient id="paint0_linear" x2="1" gradientUnits="userSpaceOnUse" gradientTransform="translate(23.7052 -2.67301) scale(24.3814 14.6288) rotate(90)">
<stop stop-color="#8D87E1"/>
<stop offset="1" stop-color="#4B3EFF"/>
</linearGradient>
<linearGradient id="paint1_linear" x2="1" gradientUnits="userSpaceOnUse" gradientTransform="translate(23.7052 -2.67301) scale(24.3814 14.6288) rotate(90)">
<stop stop-color="#8D87E1"/>
<stop offset="1" stop-color="#4B3EFF"/>
</linearGradient>
<linearGradient id="paint2_linear" x2="1" gradientUnits="userSpaceOnUse" gradientTransform="translate(23.7052 -2.67301) scale(24.3814 14.6288) rotate(90)">
<stop stop-color="#8D87E1"/>
<stop offset="1" stop-color="#4B3EFF"/>
</linearGradient>
<linearGradient id="paint3_linear" x2="1" gradientUnits="userSpaceOnUse" gradientTransform="translate(23.7052 -2.67301) scale(24.3814 14.6288) rotate(90)">
<stop stop-color="#8D87E1"/>
<stop offset="1" stop-color="#4B3EFF"/>
</linearGradient>
<linearGradient id="paint4_linear" x2="1" gradientUnits="userSpaceOnUse" gradientTransform="translate(3.5181) scale(3.5181) rotate(90)">
<stop stop-color="#8D87E1"/>
<stop offset="1" stop-color="#4B3EFF"/>
</linearGradient>
<linearGradient id="paint5_linear" x2="1" gradientUnits="userSpaceOnUse" gradientTransform="translate(3.5181) scale(3.5181) rotate(90)">
<stop stop-color="#8D87E1"/>
<stop offset="1" stop-color="#4B3EFF"/>
</linearGradient>
<linearGradient id="paint6_linear" x2="1" gradientUnits="userSpaceOnUse" gradientTransform="translate(3.5181) scale(3.5181) rotate(90)">
<stop stop-color="#8D87E1"/>
<stop offset="1" stop-color="#4B3EFF"/>
</linearGradient>
<linearGradient id="paint7_linear" x2="1" gradientUnits="userSpaceOnUse" gradientTransform="translate(29.1311) scale(29.1311 28.4689) rotate(90)">
<stop stop-color="#8D87E1"/>
<stop offset="1" stop-color="#4B3EFF"/>
</linearGradient>
</defs>
</svg>
